<svg width="14" height="14" viewBox="0 0 14 14" fill="none" xmlns="http://www.w3.org/2000/svg">
<path d="M13.6894 0.321183C13.5912 0.222737 13.4745 0.144632 13.3461 0.0913403C13.2176 0.0380489 13.0799 0.0106179 12.9408 0.0106179C12.8018 0.0106179 12.6641 0.0380489 12.5356 0.0913403C12.4072 0.144632 12.2905 0.222737 12.1923 0.321183L7 5.50284L1.80774 0.310565C1.70951 0.212118 1.59283 0.134014 1.46438 0.0807224C1.33593 0.027431 1.19823 0 1.05916 0C0.920091 0 0.782389 0.027431 0.653937 0.0807224C0.525485 0.134014 0.408805 0.212118 0.31058 0.310565C-0.103527 0.724672 -0.103527 1.39362 0.31058 1.80772L5.50284 6.99999L0.31058 12.1923C-0.103527 12.6064 -0.103527 13.2753 0.31058 13.6894C0.724687 14.1035 1.39363 14.1035 1.80774 13.6894L7 8.49715L12.1923 13.6894C12.6064 14.1035 13.2753 14.1035 13.6894 13.6894C14.1035 13.2753 14.1035 12.6064 13.6894 12.1923L8.49716 6.99999L13.6894 1.80772C14.0929 1.40423 14.0929 0.724673 13.6894 0.321183Z" fill="white"/>
</svg>
