<svg width="18" height="18" viewBox="0 0 18 18" fill="none" xmlns="http://www.w3.org/2000/svg">
<path d="M9 2.1375C10.305 2.1375 11.3625 3.195 11.3625 4.5C11.3625 5.805 10.305 6.8625 9 6.8625C7.695 6.8625 6.6375 5.805 6.6375 4.5C6.6375 3.195 7.695 2.1375 9 2.1375ZM9 12.2625C12.3413 12.2625 15.8625 13.905 15.8625 14.625V15.8625H2.1375V14.625C2.1375 13.905 5.65875 12.2625 9 12.2625ZM9 0C6.51375 0 4.5 2.01375 4.5 4.5C4.5 6.98625 6.51375 9 9 9C11.4862 9 13.5 6.98625 13.5 4.5C13.5 2.01375 11.4862 0 9 0ZM9 10.125C5.99625 10.125 0 11.6325 0 14.625V18H18V14.625C18 11.6325 12.0037 10.125 9 10.125Z" fill="#030709"/>
</svg>
