<svg width="21" height="19" viewBox="0 0 21 19" fill="none" xmlns="http://www.w3.org/2000/svg">
<path d="M15.25 0C13.51 0 11.84 0.81 10.75 2.09C9.66 0.81 7.99 0 6.25 0C3.17 0 0.75 2.42 0.75 5.5C0.75 9.28 4.15 12.36 9.3 17.04L10.75 18.35L12.2 17.03C17.35 12.36 20.75 9.28 20.75 5.5C20.75 2.42 18.33 0 15.25 0ZM10.85 15.55L10.75 15.65L10.65 15.55C5.89 11.24 2.75 8.39 2.75 5.5C2.75 3.5 4.25 2 6.25 2C7.79 2 9.29 2.99 9.82 4.36H11.69C12.21 2.99 13.71 2 15.25 2C17.25 2 18.75 3.5 18.75 5.5C18.75 8.39 15.61 11.24 10.85 15.55Z" fill="#030709"/>
</svg>
